# xmcd CD database file
#
# Track frame offsets:
#	150
#	15467
#	30564
#	44318
#	62025
#	81498
#	100048
#	114729
#	130659
#	146770
#	165096
#	178448
#	191790
#	207992
#	224267
#	238312
#	254495
#
# Disc length: 3613 seconds
#
# Revision: 1
# Processed by: cddbd v1.5.1PL0 Copyright (c) Steve Scherf et al.
# Submitted via: CDex 1.51
#
DISCID=f90e1b11
DTITLE=Various Artist - Promo Only Canada August 2004 Country Radio
DYEAR=2004
DGENRE=Country
TTITLE0=Gretchen Wilson - Here For The Party
TTITLE1=Rascal Flatts - Feels Like Today
TTITLE2=Tracy Lawrence - It's All How You Look At It
TTITLE3=George Strait - I Hate Everything
TTITLE4=Notorious Cherry Bombs - It's Hard To Kiss The Lips At Night 
TTITLE5=The Wilkinsons - Little Girl
TTITLE6=EW - Beautiful Day For Goodbye
TTITLE7=Hal Ketchum - My Love Will Not Change
TTITLE8=Scotty Emerick - The Watch
TTITLE9=Ryan Tyler - The Last Thing She Said
TTITLE10=Sherrié Austin - Son Of A Preacher Man
TTITLE11=Trick Pony - The Bride
TTITLE12=Malibu Storm - Photograph (Radio Edit)
TTITLE13=Paul Brandt - Leavin'
TTITLE14=Hometown News - Revitalize
TTITLE15=Zona Jones - Whiskey Kind Of Way
TTITLE16=Kacey Jones - I Could Get Over Him
EXTD=YEAR: 2004
EXTT0=
EXTT1=
EXTT2=
EXTT3=
EXTT4=
EXTT5=
EXTT6=
EXTT7=
EXTT8=
EXTT9=
EXTT10=
EXTT11=
EXTT12=
EXTT13=
EXTT14=
EXTT15=
EXTT16=
PLAYORDER=
